<?xml version="1.0" encoding="UTF-8"?>
<svg width="160px" height="160px" viewBox="0 0 160 160" version="1.1" xmlns="http://www.w3.org/2000/svg" xmlns:xlink="http://www.w3.org/1999/xlink">
    <title>画板备份 4@1x</title>
    <g id="画板备份-4" stroke="none" stroke-width="1" fill="none" fill-rule="evenodd">
        <path d="M41.7986183,66.8283935 C44.4719833,66.8283935 47.0402354,67.8478975 48.9835775,69.6715999 L49.2232029,69.9037357 L79.086,99.766 L97.6051876,81.2462422 C100.081683,78.7697467 104.059346,78.7093444 106.60907,81.0650352 L106.797576,81.2462422 C109.274071,83.7227377 109.334474,87.7004011 106.978783,90.2501243 L106.797576,90.4386304 L83.6818124,113.554394 C81.2053255,116.030881 77.227679,116.091292 74.6779532,113.735622 L74.4894469,113.554416 L44.298,83.364 L44.2986183,121.671607 C44.2986183,125.183417 41.5136221,128.044757 38.0317525,128.167504 L37.7986183,128.171607 C34.2868077,128.171607 31.4254678,125.38661 31.3027213,121.904741 L31.2986183,121.671607 L31.2986183,77.3283935 C31.2986183,71.5294036 35.9996284,66.8283935 41.7986183,66.8283935 Z" id="路径备份-11" fill="#64C6EE" fill-rule="nonzero"></path>
        <path d="M118.201382,31.8283935 C123.905306,31.8283935 128.546955,36.3765355 128.697607,42.0440984 L128.701382,42.3283935 L128.701382,121.671607 C128.701382,125.261457 125.791233,128.171607 122.201382,128.171607 C118.689571,128.171607 115.828231,125.38661 115.705485,121.904741 L115.701382,121.671607 L115.701,48.364 L85.5105531,78.5544164 C83.034054,81.0308911 79.0564072,81.0912832 76.506693,78.7356001 L76.3181876,78.5543937 L53.2024242,55.4386304 C50.6640163,52.9002225 50.6640163,48.7846501 53.2024242,46.2462422 C55.6789198,43.7697467 59.6565831,43.7093444 62.2063063,46.0650352 L62.3948124,46.2462422 L80.914,64.766 L110.776797,34.9037357 C112.667161,33.0133905 115.204093,31.9182727 117.867796,31.8336878 L118.201382,31.8283935 Z" id="路径备份-12" fill="#3592FB" fill-rule="nonzero"></path>
    </g>
</svg>